<?xml version="1.0" encoding="UTF-8" standalone="no"?>
<svg
   xmlns:dc="http://purl.org/dc/elements/1.1/"
   xmlns:cc="http://creativecommons.org/ns#"
   xmlns:rdf="http://www.w3.org/1999/02/22-rdf-syntax-ns#"
   xmlns:svg="http://www.w3.org/2000/svg"
   xmlns="http://www.w3.org/2000/svg"
   id="svg8"
   version="1.1"
   viewBox="0 0 168.76564 117.9449"
   height="117.9449mm"
   width="168.76564mm">
  <defs
     id="defs2" />
  <metadata
     id="metadata5">
    <rdf:RDF>
      <cc:Work
         rdf:about="">
        <dc:format>image/svg+xml</dc:format>
        <dc:type
           rdf:resource="http://purl.org/dc/dcmitype/StillImage" />
        <dc:title></dc:title>
      </cc:Work>
    </rdf:RDF>
  </metadata>
  <g
     transform="translate(-58.208332,-45.284789)"
     id="layer1">
    <g
       id="text817"
       style="font-style:normal;font-variant:normal;font-weight:normal;font-stretch:normal;font-size:10.58333302px;line-height:1.25;font-family:'Lato Black';-inkscape-font-specification:'Lato Black, ';letter-spacing:0px;word-spacing:0px;fill:#000000;fill-opacity:1;stroke:none;stroke-width:0.26458332"
       aria-label="Wysc
      Wrapped
           2019">
      <path
         id="path833"
         style="font-style:normal;font-variant:normal;font-weight:normal;font-stretch:normal;font-size:25.39999962px;font-family:'Lato Black';-inkscape-font-specification:'Lato Black, ';stroke-width:0.26458332"
         d="m 58.335332,45.284789 h 3.6068 q 0.5588,0 0.9271,0.254 0.381,0.254 0.4953,0.6731 l 2.54,9.652 q 0.127,0.4699 0.254,1.0033 0.127,0.5334 0.1905,1.1176 0.127,-0.5969 0.2794,-1.1176 0.1524,-0.5334 0.2921,-1.0033 l 2.9972,-9.652 q 0.1143,-0.3556 0.4826,-0.635 0.381,-0.2921 0.9144,-0.2921 h 1.27 q 0.5588,0 0.9144,0.254 0.3683,0.2413 0.508,0.6731 l 2.9718,9.652 q 0.1397,0.4445 0.2921,0.9525 0.1524,0.4953 0.2667,1.0668 0.1016,-0.5588 0.2032,-1.0668 0.1143,-0.508 0.2286,-0.9525 l 2.54,-9.652 q 0.1016,-0.3683 0.4826,-0.6477 0.381,-0.2794 0.9144,-0.2794 h 3.3782 l -5.715,18.5039 h -3.8862 l -3.4798,-11.4681 q -0.0889,-0.2667 -0.1905,-0.5842 -0.0889,-0.3175 -0.1778,-0.6731 -0.0889,0.3556 -0.1905,0.6731 -0.0889,0.3175 -0.1778,0.5842 l -3.5306,11.4681 h -3.8862 z" />
      <path
         id="path835"
         style="font-style:normal;font-variant:normal;font-weight:normal;font-stretch:normal;font-size:25.39999962px;font-family:'Lato Black';-inkscape-font-specification:'Lato Black, ';stroke-width:0.26458332"
         d="m 92.30307,67.204989 q -0.1778,0.3937 -0.4318,0.5715 -0.254,0.1905 -0.8128,0.1905 h -2.9464 l 2.54,-5.334 -5.2578,-12.0142 h 3.4798 q 0.4572,0 0.7112,0.2032 0.254,0.2032 0.3556,0.4826 l 2.159,5.6769 q 0.3048,0.7874 0.4953,1.5748 0.127,-0.4064 0.2794,-0.8001 0.1524,-0.3937 0.2921,-0.8001 l 1.9558,-5.6515 q 0.1016,-0.2921 0.3937,-0.4826 0.3048,-0.2032 0.6477,-0.2032 h 3.175 z" />
      <path
         id="path837"
         style="font-style:normal;font-variant:normal;font-weight:normal;font-stretch:normal;font-size:25.39999962px;font-family:'Lato Black';-inkscape-font-specification:'Lato Black, ';stroke-width:0.26458332"
         d="m 109.00952,53.501689 q -0.1524,0.2413 -0.3302,0.3429 -0.1651,0.1016 -0.4318,0.1016 -0.2794,0 -0.5588,-0.1143 -0.2794,-0.127 -0.6096,-0.2667 -0.3175,-0.1397 -0.7239,-0.254 -0.4064,-0.127 -0.9271,-0.127 -0.7493,0 -1.1557,0.2921 -0.3937,0.2794 -0.3937,0.7874 0,0.3683 0.254,0.6096 0.2667,0.2413 0.6985,0.4318 0.4318,0.1778 0.9779,0.3429 0.5461,0.1651 1.1176,0.3683 0.5715,0.2032 1.1176,0.4826 0.5461,0.2667 0.9779,0.6731 0.4318,0.3937 0.6858,0.9652 0.2667,0.5715 0.2667,1.3716 0,0.9779 -0.3556,1.8034 -0.3556,0.8255 -1.0668,1.4224 -0.6985,0.5969 -1.7399,0.9271 -1.0287,0.3302 -2.3749,0.3302 -0.6731,0 -1.3462,-0.127 -0.6731,-0.127 -1.3081,-0.3429 -0.6223,-0.2159 -1.1557,-0.508 -0.5334,-0.3048 -0.914397,-0.6477 l 0.914397,-1.4478 q 0.1651,-0.254 0.3937,-0.3937 0.2286,-0.1524 0.5969,-0.1524 0.3429,0 0.6096,0.1524 0.2794,0.1524 0.5969,0.3302 0.3175,0.1778 0.7366,0.3302 0.4318,0.1524 1.0795,0.1524 0.4572,0 0.7747,-0.0889 0.3175,-0.1016 0.508,-0.2667 0.1905,-0.1651 0.2794,-0.3683 0.0889,-0.2032 0.0889,-0.4191 0,-0.3937 -0.2667,-0.6477 -0.2667,-0.254 -0.6985,-0.4318 -0.4318,-0.1905 -0.9906,-0.3429 -0.5461,-0.1651 -1.1176,-0.3683 -0.5715,-0.2032 -1.1303,-0.4826 -0.5461,-0.2921 -0.9779,-0.7239 -0.4318,-0.4445 -0.6985,-1.0795 -0.2667,-0.635 -0.2667,-1.5367 0,-0.8382 0.3175,-1.5875 0.3302,-0.762 0.9779,-1.3335 0.6477,-0.5715 1.6256,-0.9017 0.9779,-0.3429 2.286,-0.3429 0.7112,0 1.3716,0.127 0.6731,0.127 1.2573,0.3556 0.5842,0.2286 1.0668,0.5461 0.4826,0.3048 0.8509,0.6731 z" />
      <path
         id="path839"
         style="font-style:normal;font-variant:normal;font-weight:normal;font-stretch:normal;font-size:25.39999962px;font-family:'Lato Black';-inkscape-font-specification:'Lato Black, ';stroke-width:0.26458332"
         d="m 121.61943,53.742989 q -0.1778,0.2159 -0.3429,0.3429 -0.1651,0.127 -0.4699,0.127 -0.2921,0 -0.5334,-0.1397 -0.2286,-0.1397 -0.5207,-0.3048 -0.2921,-0.1778 -0.6858,-0.3175 -0.3937,-0.1397 -0.9779,-0.1397 -0.7239,0 -1.2573,0.2667 -0.5207,0.2667 -0.8636,0.762 -0.3429,0.4953 -0.508,1.2192 -0.1651,0.7112 -0.1651,1.6129 0,1.8923 0.7239,2.9083 0.7366,1.016 2.0193,1.016 0.6858,0 1.0795,-0.1651 0.4064,-0.1778 0.6858,-0.381 0.2794,-0.2159 0.508,-0.3937 0.2413,-0.1778 0.5969,-0.1778 0.4699,0 0.7112,0.3429 l 1.143,1.4097 q -0.6096,0.6985 -1.2827,1.143 -0.6731,0.4318 -1.3843,0.6858 -0.6985,0.2413 -1.4097,0.3302 -0.7112,0.1016 -1.3843,0.1016 -1.2065,0 -2.3114,-0.4572 -1.0922,-0.4572 -1.9304,-1.3208 -0.8255,-0.8763 -1.3208,-2.1463 -0.4826,-1.27 -0.4826,-2.8956 0,-1.4224 0.4191,-2.6543 0.4318,-1.2446 1.2573,-2.1463 0.8382,-0.9144 2.0574,-1.4351 1.2319,-0.5207 2.8448,-0.5207 1.5494,0 2.7178,0.4953 1.1684,0.4953 2.1082,1.4478 z" />
      <path
         id="path841"
         style="font-size:25.39999962px"
         d="m 70.613652,77.034788 h 3.6068 q 0.5588,0 0.9271,0.254 0.381,0.254 0.4953,0.6731 l 2.54,9.652 q 0.127,0.4699 0.254,1.0033 0.127,0.5334 0.1905,1.1176 0.127,-0.5969 0.2794,-1.1176 0.1524,-0.5334 0.2921,-1.0033 l 2.9972,-9.652 q 0.1143,-0.3556 0.4826,-0.635 0.381,-0.2921 0.9144,-0.2921 h 1.27 q 0.5588,0 0.9144,0.254 0.3683,0.2413 0.508,0.6731 l 2.9718,9.652 q 0.1397,0.4445 0.2921,0.9525 0.1524,0.4953 0.2667,1.0668 0.1016,-0.5588 0.2032,-1.0668 0.1143,-0.508 0.2286,-0.9525 l 2.54,-9.652 q 0.1016,-0.3683 0.4826,-0.6477 0.381,-0.2794 0.9144,-0.2794 h 3.3782 l -5.715,18.5039 h -3.8862 l -3.4798,-11.4681 q -0.0889,-0.2667 -0.1905,-0.5842 -0.0889,-0.3175 -0.1778,-0.6731 -0.0889,0.3556 -0.1905,0.6731 -0.0889,0.3175 -0.1778,0.5842 l -3.5306,11.4681 h -3.8862 z" />
      <path
         id="path843"
         style="font-size:25.39999962px"
         d="m 99.196588,95.538688 v -13.1699 h 2.336802 q 0.2921,0 0.4826,0.0508 0.2032,0.0508 0.3302,0.1651 0.1397,0.1016 0.2032,0.2794 0.0762,0.1778 0.127,0.4318 l 0.2159,1.2319 q 0.7239,-1.1176 1.6256,-1.7653 0.9017,-0.6477 1.9685,-0.6477 0.9017,0 1.4478,0.4318 l -0.508,2.8956 q -0.0508,0.2667 -0.2032,0.381 -0.1524,0.1016 -0.4064,0.1016 -0.2159,0 -0.508,-0.0508 -0.2921,-0.0635 -0.7366,-0.0635 -1.5494,0 -2.4384,1.651 v 8.0772 z" />
      <path
         id="path845"
         style="font-size:25.39999962px"
         d="m 118.50932,95.538688 q -0.5588,0 -0.8509,-0.1524 -0.2794,-0.1524 -0.4699,-0.635 l -0.2794,-0.7239 q -0.4953,0.4191 -0.9525,0.7366 -0.4572,0.3175 -0.9525,0.5461 -0.4826,0.2159 -1.0414,0.3175 -0.5461,0.1143 -1.2192,0.1143 -0.9017,0 -1.6383,-0.2286 -0.7366,-0.2413 -1.2573,-0.6985 -0.508,-0.4572 -0.7874,-1.1303 -0.2794,-0.6858 -0.2794,-1.5748 0,-0.6985 0.3556,-1.4351 0.3556,-0.7366 1.2319,-1.3335 0.8763,-0.6096 2.3622,-1.016 1.4859,-0.4064 3.7465,-0.4572 v -0.5588 q 0,-1.1557 -0.4826,-1.6637 -0.4699,-0.5207 -1.3462,-0.5207 -0.6985,0 -1.143,0.1524 -0.4445,0.1524 -0.8001,0.3429 -0.3429,0.1905 -0.6731,0.3429 -0.3302,0.1524 -0.7874,0.1524 -0.4064,0 -0.6985,-0.1905 -0.2794,-0.2032 -0.4445,-0.4953 l -0.7112,-1.2319 q 1.1938,-1.0541 2.6416,-1.5621 1.4605,-0.5207 3.1242,-0.5207 1.1938,0 2.1463,0.3937 0.9652,0.381 1.6256,1.0795 0.6731,0.6858 1.0287,1.6383 0.3556,0.9525 0.3556,2.0828 v 8.2296 z m -4.5212,-2.4003 q 0.762,0 1.3335,-0.2667 0.5715,-0.2667 1.1557,-0.8636 v -1.8288 q -1.1811,0.0508 -1.9431,0.2032 -0.762,0.1524 -1.2065,0.381 -0.4445,0.2286 -0.6223,0.5207 -0.1651,0.2921 -0.1651,0.635 0,0.6731 0.3683,0.9525 0.3683,0.2667 1.0795,0.2667 z" />
      <path
         id="path847"
         style="font-size:25.39999962px"
         d="m 123.10831,99.716988 v -17.3482 h 2.4384 q 0.3683,0 0.6096,0.1651 0.254,0.1651 0.3556,0.4953 l 0.2921,0.9652 q 0.381,-0.4191 0.8128,-0.762 0.4445,-0.3429 0.9398,-0.5842 0.508,-0.254 1.0795,-0.3937 0.5842,-0.1397 1.27,-0.1397 1.0287,0 1.905,0.4572 0.8763,0.4572 1.5113,1.3208 0.635,0.8636 0.9906,2.1209 0.3683,1.2446 0.3683,2.8321 0,1.4859 -0.4191,2.7432 -0.4064,1.2573 -1.1557,2.1844 -0.7366,0.9271 -1.778,1.4478 -1.0287,0.5207 -2.286,0.5207 -1.0287,0 -1.7272,-0.2921 -0.6985,-0.2921 -1.27,-0.7874 v 5.0546 z m 6.4262,-14.5923 q -0.4318,0 -0.7874,0.0889 -0.3429,0.0762 -0.6477,0.2286 -0.2921,0.1524 -0.5461,0.3937 -0.254,0.2286 -0.508,0.5334 v 5.588 q 0.4445,0.4953 0.9652,0.6985 0.5207,0.1905 1.0922,0.1905 0.5461,0 1.0033,-0.2159 0.4572,-0.2159 0.7874,-0.6858 0.3429,-0.4826 0.5334,-1.2446 0.1905,-0.762 0.1905,-1.8542 0,-1.0414 -0.1524,-1.7526 -0.1524,-0.7112 -0.4318,-1.143 -0.2667,-0.4445 -0.6477,-0.635 -0.381,-0.1905 -0.8509,-0.1905 z" />
      <path
         id="path849"
         style="font-size:25.39999962px"
         d="m 137.79268,99.716988 v -17.3482 h 2.4384 q 0.3683,0 0.6096,0.1651 0.254,0.1651 0.3556,0.4953 l 0.2921,0.9652 q 0.381,-0.4191 0.8128,-0.762 0.4445,-0.3429 0.9398,-0.5842 0.508,-0.254 1.0795,-0.3937 0.5842,-0.1397 1.27,-0.1397 1.0287,0 1.905,0.4572 0.8763,0.4572 1.5113,1.3208 0.635,0.8636 0.9906,2.1209 0.3683,1.2446 0.3683,2.8321 0,1.4859 -0.4191,2.7432 -0.4064,1.2573 -1.1557,2.1844 -0.7366,0.9271 -1.778,1.4478 -1.0287,0.5207 -2.286,0.5207 -1.0287,0 -1.7272,-0.2921 -0.6985,-0.2921 -1.27,-0.7874 v 5.0546 z m 6.4262,-14.5923 q -0.4318,0 -0.7874,0.0889 -0.3429,0.0762 -0.6477,0.2286 -0.2921,0.1524 -0.5461,0.3937 -0.254,0.2286 -0.508,0.5334 v 5.588 q 0.4445,0.4953 0.9652,0.6985 0.5207,0.1905 1.0922,0.1905 0.5461,0 1.0033,-0.2159 0.4572,-0.2159 0.7874,-0.6858 0.3429,-0.4826 0.5334,-1.2446 0.1905,-0.762 0.1905,-1.8542 0,-1.0414 -0.1524,-1.7526 -0.1524,-0.7112 -0.4318,-1.143 -0.2667,-0.4445 -0.6477,-0.635 -0.381,-0.1905 -0.8509,-0.1905 z" />
      <path
         id="path851"
         style="font-size:25.39999962px"
         d="m 158.11586,82.165588 q 1.3081,0 2.3876,0.4064 1.0922,0.4064 1.8669,1.1811 0.7874,0.7747 1.2192,1.905 0.4445,1.1176 0.4445,2.54 0,0.4445 -0.0381,0.7239 -0.0381,0.2794 -0.1397,0.4445 -0.1016,0.1651 -0.2794,0.2286 -0.1651,0.0635 -0.4318,0.0635 h -7.5946 q 0.1905,1.651 1.0033,2.4003 0.8128,0.7366 2.0955,0.7366 0.6858,0 1.1811,-0.1651 0.4953,-0.1651 0.8763,-0.3683 0.3937,-0.2032 0.7112,-0.3683 0.3302,-0.1651 0.6858,-0.1651 0.4699,0 0.7112,0.3429 l 1.143,1.4097 q -0.6096,0.6985 -1.3208,1.143 -0.6985,0.4318 -1.4478,0.6858 -0.7366,0.2413 -1.4859,0.3302 -0.7366,0.1016 -1.4097,0.1016 -1.3843,0 -2.6035,-0.4445 -1.2065,-0.4572 -2.1209,-1.3462 -0.9017,-0.889 -1.4351,-2.2098 -0.5207,-1.3208 -0.5207,-3.0734 0,-1.3208 0.4445,-2.5019 0.4572,-1.1811 1.2954,-2.0701 0.8509,-0.889 2.0447,-1.4097 1.2065,-0.5207 2.7178,-0.5207 z m 0.0762,2.7178 q -1.1303,0 -1.7653,0.6477 -0.635,0.635 -0.8382,1.8415 h 4.9149 q 0,-0.4699 -0.127,-0.9144 -0.1143,-0.4445 -0.3937,-0.7874 -0.2667,-0.3556 -0.7112,-0.5715 -0.4445,-0.2159 -1.0795,-0.2159 z" />
      <path
         id="path853"
         style="font-size:25.39999962px"
         d="m 175.56367,95.538688 q -0.3683,0 -0.6223,-0.1651 -0.2413,-0.1651 -0.3429,-0.4953 l -0.3048,-1.0033 q -0.3937,0.4191 -0.8255,0.762 -0.4318,0.3429 -0.9398,0.5969 -0.4953,0.2413 -1.0795,0.3683 -0.5715,0.1397 -1.2446,0.1397 -1.0287,0 -1.905,-0.4572 -0.8763,-0.4572 -1.5113,-1.3208 -0.635,-0.8636 -1.0033,-2.1082 -0.3556,-1.2573 -0.3556,-2.8575 0,-1.4732 0.4064,-2.7305 0.4064,-1.27 1.143,-2.1844 0.7493,-0.9271 1.7907,-1.4478 1.0414,-0.5207 2.2987,-0.5207 1.016,0 1.7145,0.3048 0.7112,0.2921 1.2827,0.7747 v -6.6675 h 3.937 v 19.0119 z m -3.9878,-2.8194 q 0.4318,0 0.7747,-0.0762 0.3556,-0.0889 0.6477,-0.2413 0.2921,-0.1524 0.5461,-0.381 0.2667,-0.2286 0.5207,-0.5334 v -5.588 q -0.4572,-0.4953 -0.9779,-0.6858 -0.508,-0.2032 -1.0795,-0.2032 -0.5461,0 -1.0033,0.2159 -0.4572,0.2159 -0.8001,0.6985 -0.3302,0.4699 -0.5207,1.2319 -0.1905,0.762 -0.1905,1.8415 0,1.0414 0.1524,1.7526 0.1524,0.7112 0.4191,1.1557 0.2794,0.4318 0.6604,0.6223 0.381,0.1905 0.8509,0.1905 z" />
      <path
         id="path855"
         style="font-size:63.5px"
         d="m 99.832086,115.95394 q 3.429004,0 6.159504,1.016 2.76225,0.98425 4.699,2.76225 1.93675,1.778 2.95275,4.2545 1.04775,2.44475 1.04775,5.3975 0,2.54 -0.73025,4.699 -0.6985,2.159 -1.93675,4.1275 -1.23825,1.93675 -2.88925,3.77825 -1.61925,1.80975 -3.46075,3.683 l -9.048754,9.271 q 1.74625,-0.508 3.429004,-0.79375 1.7145,-0.3175 3.20675,-0.3175 h 8.636 q 1.5875,0 2.50825,0.889 0.92075,0.85725 0.92075,2.286 v 5.715 H 82.814086 v -3.175 q 0,-0.92075 0.381,-1.9685 0.381,-1.04775 1.3335,-1.905 l 13.335,-13.43025 q 1.7145,-1.7145 2.984504,-3.27025 1.27,-1.55575 2.0955,-3.048 0.8255,-1.524 1.23825,-3.01625 0.41275,-1.524 0.41275,-3.20675 0,-2.76225 -1.3335,-4.22275 -1.30175,-1.49225 -4.000504,-1.49225 -1.11125,0 -2.032,0.3175 -0.92075,0.3175 -1.651,0.85725 -0.73025,0.53975 -1.27,1.27 -0.508,0.73025 -0.8255,1.5875 -0.508,1.42875 -1.30175,2.06375 -0.762,0.635 -2.0955,0.635 -0.3175,0 -0.6985,-0.0318 -0.34925,-0.0317 -0.73025,-0.0952 l -5.207,-0.92075 q 0.508,-3.46075 1.93675,-6.0325 1.4605,-2.57175 3.58775,-4.28625 2.159,-1.7145 4.92125,-2.54 2.76225,-0.85725 5.93725,-0.85725 z" />
      <path
         id="path857"
         style="font-size:63.5px"
         d="m 153.11355,139.57594 q 0,6.06425 -1.30175,10.50925 -1.30175,4.445 -3.6195,7.366 -2.286,2.921 -5.461,4.34975 -3.14325,1.42875 -6.82625,1.42875 -3.683,0 -6.82625,-1.42875 -3.1115,-1.42875 -5.3975,-4.34975 -2.286,-2.921 -3.58775,-7.366 -1.27,-4.445 -1.27,-10.50925 0,-6.06425 1.27,-10.50925 1.30175,-4.445 3.58775,-7.366 2.286,-2.921 5.3975,-4.318 3.14325,-1.42875 6.82625,-1.42875 3.683,0 6.82625,1.42875 3.175,1.397 5.461,4.318 2.31775,2.921 3.6195,7.366 1.30175,4.445 1.30175,10.50925 z m -10.16,0 q 0,-4.79425 -0.60325,-7.84225 -0.60325,-3.07975 -1.61925,-4.826 -0.98425,-1.74625 -2.25425,-2.38125 -1.27,-0.66675 -2.57175,-0.66675 -1.30175,0 -2.57175,0.66675 -1.23825,0.635 -2.2225,2.38125 -0.9525,1.74625 -1.55575,4.826 -0.5715,3.048 -0.5715,7.84225 0,4.826 0.5715,7.874 0.60325,3.048 1.55575,4.826 0.98425,1.74625 2.2225,2.413 1.27,0.635 2.57175,0.635 1.30175,0 2.57175,-0.635 1.27,-0.66675 2.25425,-2.413 1.016,-1.778 1.61925,-4.826 0.60325,-3.048 0.60325,-7.874 z" />
      <path
         id="path859"
         style="font-size:63.5px"
         d="m 162.38951,155.60969 h 8.89 v -23.33625 q 0,-1.7145 0.0953,-3.58775 l -5.23875,4.34975 q -0.508,0.41275 -1.016,0.60325 -0.508,0.15875 -0.98425,0.15875 -0.8255,0 -1.49225,-0.34925 -0.635,-0.381 -0.9525,-0.79375 l -3.1115,-4.1275 14.4145,-12.09675 h 8.128 v 39.1795 h 7.62 v 7.112 h -26.3525 z" />
      <path
         id="path861"
         style="font-size:63.5px"
         d="m 207.47947,144.68769 q -2.25425,0 -4.5085,-0.79375 -2.25425,-0.8255 -4.09575,-2.4765 -1.80975,-1.651 -2.95275,-4.15925 -1.143,-2.50825 -1.143,-5.93725 0,-3.14325 1.143,-5.93725 1.17475,-2.794 3.302,-4.8895 2.159,-2.0955 5.1435,-3.302 2.9845,-1.23825 6.6675,-1.23825 3.7465,0 6.69925,1.143 2.95275,1.143 4.98475,3.20675 2.06375,2.06375 3.14325,4.92125 1.11125,2.82575 1.11125,6.25475 0,2.286 -0.381,4.28625 -0.34925,2.00025 -1.016,3.84175 -0.635,1.80975 -1.55575,3.4925 -0.92075,1.651 -2.06375,3.27025 l -9.9695,14.1605 q -0.635,0.92075 -2.00025,1.55575 -1.36525,0.635 -3.07975,0.635 h -9.0805 l 14.6685,-17.526 q 0.4445,-0.53975 0.8255,-1.016 0.41275,-0.508 0.79375,-1.016 -1.42875,0.762 -3.1115,1.143 -1.68275,0.381 -3.52425,0.381 z m 10.0965,-14.097 q 0,-1.68275 -0.508,-2.95275 -0.47625,-1.30175 -1.36525,-2.159 -0.85725,-0.85725 -2.0955,-1.30175 -1.23825,-0.4445 -2.69875,-0.4445 -1.49225,0 -2.667,0.53975 -1.143,0.508 -1.9685,1.42875 -0.79375,0.92075 -1.23825,2.19075 -0.41275,1.23825 -0.41275,2.69875 0,6.9215 6.4135,6.9215 3.14325,0 4.826,-1.87325 1.7145,-1.905 1.7145,-5.04825 z" />
    </g>
  </g>
</svg>
